HIERARCHY
ROOT Hips
{
  OFFSET 0 0 0
  CHANNELS 6 Xposition Yposition Zposition Zrotation Xrotation Yrotation
  JOINT Spine
  {
    OFFSET 0 10.1816 0.131521
    CHANNELS 3 Zrotation Xrotation Yrotation
    JOINT Spine1
    {
      OFFSET 0 10.0835 -1.0008
      CHANNELS 3 Zrotation Xrotation Yrotation
      JOINT Spine2
      {
        OFFSET 0 9.10001 -1.37342
        CHANNELS 3 Zrotation Xrotation Yrotation
        JOINT Neck
        {
          OFFSET 0 16.6717 -2.51617
          CHANNELS 3 Zrotation Xrotation Yrotation
          JOINT Head
          {
            OFFSET 0 9.61788 1.68501
            CHANNELS 3 Zrotation Xrotation Yrotation
            End Site
            {
              OFFSET 0 17.8152 2.58499
            }
          }
        }
        JOINT LeftShoulder
        {
          OFFSET 4.57045 10.946 -2.62799
          CHANNELS 3 Zrotation Xrotation Yrotation
          JOINT LeftArm
          {
            OFFSET 10.5924 -0.524583 -2.23212
            CHANNELS 3 Zrotation Xrotation Yrotation
            JOINT LeftForeArm
            {
              OFFSET 27.8415 -8.94286e-05 3.74589e-05
              CHANNELS 3 Zrotation Xrotation Yrotation
              JOINT LeftHand
              {
                OFFSET 28.3288 -1.74407e-05 3.78045e-05
                CHANNELS 3 Zrotation Xrotation Yrotation
                End Site
                {
                  OFFSET 9.5334 -3.3924e-05 1.3937e-05
                }
              }
            }
          }
        }
        JOINT RightShoulder
        {
          OFFSET -4.56997 10.9462 -2.62802
          CHANNELS 3 Zrotation Xrotation Yrotation
          JOINT RightArm
          {
            OFFSET -10.5928 -0.524798 -2.2321
            CHANNELS 3 Zrotation Xrotation Yrotation
            JOINT RightForeArm
            {
              OFFSET -27.8415 -3.30792e-05 1.16763e-05
              CHANNELS 3 Zrotation Xrotation Yrotation
              JOINT RightHand
              {
                OFFSET -28.3288 0 5.5816e-05
                CHANNELS 3 Zrotation Xrotation Yrotation
                End Site
                {
                  OFFSET -9.5325 -1.63123e-05 1.67918e-05
                }
              }
            }
          }
        }
      }
    }
  }
  JOINT LeftUpLeg
  {
    OFFSET 8.20778 -6.75171 -1.59956
    CHANNELS 3 Zrotation Xrotation Yrotation
    JOINT LeftLeg
    {
      OFFSET 0 -44.3705 0.284643
      CHANNELS 3 Zrotation Xrotation Yrotation
      JOINT LeftFoot
      {
        OFFSET 0 -44.4279 -2.98219
        CHANNELS 3 Zrotation Xrotation Yrotation
        JOINT LeftToeBase
        {
          OFFSET 0 -8.72867 10.7106
          CHANNELS 3 Zrotation Xrotation Yrotation
          End Site
          {
            OFFSET 0 -0.000676683 9.27814
          }
        }
      }
    }
  }
  JOINT RightUpLeg
  {
    OFFSET -8.2078 -6.75166 -1.59956
    CHANNELS 3 Zrotation Xrotation Yrotation
    JOINT RightLeg
    {
      OFFSET 0 -44.3705 0.286156
      CHANNELS 3 Zrotation Xrotation Yrotation
      JOINT RightFoot
      {
        OFFSET 0 -44.4277 -2.98379
        CHANNELS 3 Zrotation Xrotation Yrotation
        JOINT RightToeBase
        {
          OFFSET 0 -8.72867 10.7106
          CHANNELS 3 Zrotation Xrotation Yrotation
          End Site
          {
            OFFSET 0 -0.000676369 9.27812
          }
        }
      }
    }
  }
}
MOTION
Frames:	7
Frame Time:	0.0333333
-0.00863835 104.059 1.6015 -0.755655 0.0169989 -2.29926 -0.695354 -0.12923 0.567557 -0.318749 -0.252231 1.05956 1.77454 -0.208354 1.43049 3.83962 8.44707 0.0118738 -5.57369 -6.61424 -3.14399 -11.9648 -2.47778 -11.4025 -74.1519 31.96 6.08684 -0.000200597 1.53184e-06 -9.29117 -2.18262 -11.6864 5.63756 11.8215 -2.15384 0.378673 70.8295 42.9406 -2.18538 1.07043e-05 8.37092e-06 10.8252 0.116873 -14.4142 0.566283 2.10329 -5.79607 11.1526 -0.165379 7.45859 -3.22794 0.0483917 -1.49852 6.11447 -7.06419e-08 -0.00096921 1.67228e-06 1.26106 -3.52845 0.737329 0.0640462 3.60357 -5.28953 -0.516322 -0.103586 2.81149 4.55858e-08 -0.00903678 1.27748e-06 
-0.0894885 104.06 1.7992 -0.758535 -0.00268525 -2.24291 -0.711856 -0.152239 0.541079 -0.318751 -0.273678 1.04012 1.77456 -0.230481 1.41121 3.84211 8.4058 0.0142496 -5.62265 -6.824 -3.15123 -11.852 -2.48724 -11.4083 -74.5122 31.9046 6.40107 -0.000205727 -2.59911e-06 -9.38044 -2.376 -11.5632 5.94009 11.7945 -2.16538 0.319903 70.9891 42.9355 -2.34401 1.08669e-05 -1.46744e-06 10.9053 0.0899894 -14.6029 0.496899 2.16568 -5.70076 11.2087 -0.172094 7.54514 -3.33583 0.0106984 -1.57885 6.11292 6.36125e-08 -0.0609666 -5.12629e-06 1.27526 -3.35702 0.679434 0.113257 3.56741 -5.32055 -0.571769 -0.226059 2.81575 3.17712e-07 -0.388729 -1.21968e-06 
-0.153981 104.062 1.97754 -0.754945 0.0169884 -2.2523 -0.730278 -0.170626 0.533376 -0.324657 -0.290962 1.03693 1.7684 -0.247825 1.40847 3.86276 8.33982 0.0156389 -5.65055 -7.05265 -3.14867 -11.7745 -2.48998 -11.4318 -74.7183 31.8085 6.7015 -0.000212275 9.33936e-07 -9.49105 -2.43711 -11.5226 6.03999 11.8136 -2.1672 0.290184 71.0186 42.9254 -2.35537 -2.24722e-06 -1.51379e-05 10.7852 0.0191762 -14.4953 0.612389 2.18945 -5.63671 11.2321 -0.148147 7.6019 -3.32381 0.0176622 -1.71188 6.11318 -2.16535e-07 -0.0269211 1.2662e-06 1.27961 -3.24038 0.639641 0.159431 3.51855 -5.27735 -0.620796 -0.318173 2.81563 -1.81302e-07 -1.00083 -1.27764e-06 
-0.207497 104.038 2.13022 -0.709308 0.0775957 -2.30155 -0.784677 -0.184216 0.534591 -0.347132 -0.304319 1.0403 1.74575 -0.26095 1.41206 3.87998 8.26356 0.0237004 -5.63561 -7.29634 -3.14339 -11.7711 -2.48667 -11.4495 -74.7258 31.7018 6.9087 -0.000213492 1.59726e-05 -9.53792 -2.41029 -11.3356 6.12979 11.8269 -2.16753 0.280326 70.9757 42.813 -2.1602 -8.30561e-06 -3.36543e-06 10.4353 0.00119032 -14.1867 0.703569 2.1823 -5.68476 11.2428 -0.138683 7.7767 -3.27693 0.0327705 -1.90786 6.11377 -1.7158e-07 -0.0146358 -1.67217e-06 1.25619 -3.51904 0.631359 0.170572 4.13077 -5.24351 -0.683076 -0.71657 2.80408 -2.69559e-07 -1.33176 -9.13569e-07 
-0.249008 103.988 2.26391 -0.644108 0.141482 -2.34216 -0.865171 -0.168065 0.526554 -0.363531 -0.291689 1.03412 1.72922 -0.24852 1.4058 3.91257 8.18132 0.0322349 -5.57908 -7.54321 -3.12648 -11.7501 -2.4757 -11.5272 -74.6485 31.5374 6.98091 -0.000200669 -6.52235e-06 -9.40984 -2.34963 -11.1706 6.13161 11.859 -2.16379 0.277807 70.8827 42.5427 -1.9014 4.07656e-07 2.18147e-07 10.1092 -0.0407966 -14.0314 0.629579 2.17085 -5.83338 11.2616 -0.139102 8.1301 -3.26085 0.0335405 -2.20735 6.11363 -1.21873e-07 0.010362 -3.05695e-06 1.22659 -4.13836 0.650654 0.176087 5.3896 -5.2381 -0.848841 -1.42359 2.78757 -2.54892e-08 -1.59787 1.2139e-06 
-0.268504 103.994 2.39016 -0.690501 0.204449 -2.3701 -0.842426 -0.116009 0.502841 -0.35464 -0.245793 1.01762 1.73743 -0.203443 1.38915 3.96742 8.09497 0.037191 -5.50092 -7.79642 -3.10421 -11.405 -2.50532 -11.5358 -74.9794 31.3811 7.40929 -0.000187948 -8.03773e-06 -9.52019 -1.72781 -11.1565 5.24227 11.7318 -2.18478 0.242946 71.0963 42.2613 -1.97948 -7.54662e-06 -1.30053e-05 10.209 -0.330199 -14.1359 0.49809 2.22067 -5.78303 11.277 -0.120651 8.07211 -3.26987 -0.0544609 -2.2784 6.10929 -1.60904e-07 0.0264938 -1.44878e-07 1.28851 -3.88279 0.744157 0.170797 4.90964 -5.22925 -0.727511 -1.26115 2.77983 2.22819e-07 -1.27045 4.25924e-07 
-0.275068 104.055 2.52469 -0.770142 0.318594 -2.42445 -0.778979 -0.0675179 0.45851 -0.342796 -0.204342 0.989822 1.7473 -0.162912 1.36073 3.95614 8.07106 0.0547558 -5.42041 -8.22712 -3.10297 -10.6839 -2.60615 -11.2874 -76.0581 31.1359 8.82724 -0.000216902 4.92337e-07 -10.3588 -0.158623 -10.8856 3.30654 11.2326 -2.25782 0.188301 72.1244 42.1362 -2.83192 -3.5422e-06 -1.36621e-07 10.8089 -0.805821 -14.5406 0.615012 2.22722 -5.50002 11.2546 -0.0774709 7.4408 -3.25436 -0.178627 -2.05769 6.10402 1.02481e-07 0.0140373 -2.36057e-06 1.38906 -3.12286 0.888434 0.14698 3.31411 -5.20194 -0.663561 -0.530156 2.78895 2.581e-07 -0.525124 -6.01517e-07 
